<?xml version='1.0' encoding='utf-8'?>
<svg width="600" height="200" viewBox="0 0 600 200" fill="none" xmlns="http://www.w3.org/2000/svg">
  <style>
        .title { font: 600 16px 'Segoe UI', Ubuntu, Sans-Serif; fill: #24292f; }
        .label { font: 400 10px 'Segoe UI', Ubuntu, Sans-Serif; fill: #8b949e; }
    </style>
  <rect x="0" y="0" width="600" height="200" rx="4.5" fill="#ffffff" stroke="#e1e4e8" />
  <text x="20" y="25" class="title">30-Day Contributions: 69 (Combined)</text>
  <line x1="40" y1="170.0" x2="580" y2="170.0" stroke="#ebedf0" stroke_width="1" />
  <text x="30" y="173.0" text_anchor="end" class="label">0</text>
  <line x1="40" y1="137.5" x2="580" y2="137.5" stroke="#ebedf0" stroke_width="1" />
  <text x="30" y="140.5" text_anchor="end" class="label">2</text>
  <line x1="40" y1="105.0" x2="580" y2="105.0" stroke="#ebedf0" stroke_width="1" />
  <text x="30" y="108.0" text_anchor="end" class="label">4</text>
  <line x1="40" y1="72.5" x2="580" y2="72.5" stroke="#ebedf0" stroke_width="1" />
  <text x="30" y="75.5" text_anchor="end" class="label">6</text>
  <line x1="40" y1="40.0" x2="580" y2="40.0" stroke="#ebedf0" stroke_width="1" />
  <text x="30" y="43.0" text_anchor="end" class="label">8</text>
  <path d="M 40.0 170 L 40.0 88.75 L 58.62068965517241 170.0 L 77.24137931034483 88.75 L 95.86206896551724 170.0 L 114.48275862068965 170.0 L 133.10344827586206 105.0 L 151.72413793103448 137.5 L 170.3448275862069 88.75 L 188.9655172413793 88.75 L 207.58620689655172 137.5 L 226.20689655172413 170.0 L 244.82758620689654 170.0 L 263.44827586206895 88.75 L 282.0689655172414 153.75 L 300.6896551724138 40.0 L 319.31034482758616 72.5 L 337.9310344827586 105.0 L 356.55172413793105 170.0 L 375.17241379310343 170.0 L 393.7931034482758 72.5 L 412.41379310344826 153.75 L 431.0344827586207 170.0 L 449.6551724137931 105.0 L 468.27586206896547 153.75 L 486.8965517241379 170.0 L 505.51724137931035 170.0 L 524.1379310344828 121.25 L 542.7586206896551 137.5 L 561.3793103448276 170.0 L 580.0 170.0 L 580.0 170 Z" fill="rgba(45, 164, 78, 0.2)" />
  <path d="M 40.0 88.75 L 58.62068965517241 170.0 L 77.24137931034483 88.75 L 95.86206896551724 170.0 L 114.48275862068965 170.0 L 133.10344827586206 105.0 L 151.72413793103448 137.5 L 170.3448275862069 88.75 L 188.9655172413793 88.75 L 207.58620689655172 137.5 L 226.20689655172413 170.0 L 244.82758620689654 170.0 L 263.44827586206895 88.75 L 282.0689655172414 153.75 L 300.6896551724138 40.0 L 319.31034482758616 72.5 L 337.9310344827586 105.0 L 356.55172413793105 170.0 L 375.17241379310343 170.0 L 393.7931034482758 72.5 L 412.41379310344826 153.75 L 431.0344827586207 170.0 L 449.6551724137931 105.0 L 468.27586206896547 153.75 L 486.8965517241379 170.0 L 505.51724137931035 170.0 L 524.1379310344828 121.25 L 542.7586206896551 137.5 L 561.3793103448276 170.0 L 580.0 170.0 " fill="none" stroke="#2da44e" stroke_width="2" stroke_linejoin="round" stroke_linecap="round" />
  <text x="40" y="190" text_anchor="start" class="label">Jun 24</text>
  <text x="580" y="190" text_anchor="end" class="label">Jul 23</text>
</svg>