<?xml version='1.0' encoding='utf-8'?>
<svg width="600" height="200" viewBox="0 0 600 200" fill="none" xmlns="http://www.w3.org/2000/svg">
  <style>
        .title { font: 600 16px 'Segoe UI', Ubuntu, Sans-Serif; fill: #c9d1d9; }
        .label { font: 400 10px 'Segoe UI', Ubuntu, Sans-Serif; fill: #8b949e; }
    </style>
  <rect x="0" y="0" width="600" height="200" rx="4.5" fill="#0d1117" stroke="#30363d" />
  <text x="20" y="25" class="title">30-Day Contributions: 47 (Combined)</text>
  <line x1="40" y1="170.0" x2="580" y2="170.0" stroke="#21262d" stroke_width="1" />
  <text x="30" y="173.0" text_anchor="end" class="label">0</text>
  <line x1="40" y1="137.5" x2="580" y2="137.5" stroke="#21262d" stroke_width="1" />
  <text x="30" y="140.5" text_anchor="end" class="label">1</text>
  <line x1="40" y1="105.0" x2="580" y2="105.0" stroke="#21262d" stroke_width="1" />
  <text x="30" y="108.0" text_anchor="end" class="label">3</text>
  <line x1="40" y1="72.5" x2="580" y2="72.5" stroke="#21262d" stroke_width="1" />
  <text x="30" y="75.5" text_anchor="end" class="label">5</text>
  <line x1="40" y1="40.0" x2="580" y2="40.0" stroke="#21262d" stroke_width="1" />
  <text x="30" y="43.0" text_anchor="end" class="label">7</text>
  <path d="M 40.0 170 L 40.0 170.0 L 58.62068965517241 170.0 L 77.24137931034483 95.71428571428572 L 95.86206896551724 151.42857142857144 L 114.48275862068965 170.0 L 133.10344827586206 114.28571428571429 L 151.72413793103448 151.42857142857144 L 170.3448275862069 170.0 L 188.9655172413793 170.0 L 207.58620689655172 151.42857142857144 L 226.20689655172413 95.71428571428572 L 244.82758620689654 95.71428571428572 L 263.44827586206895 132.85714285714286 L 282.0689655172414 170.0 L 300.6896551724138 95.71428571428572 L 319.31034482758616 151.42857142857144 L 337.9310344827586 170.0 L 356.55172413793105 95.71428571428572 L 375.17241379310343 151.42857142857144 L 393.7931034482758 151.42857142857144 L 412.41379310344826 151.42857142857144 L 431.0344827586207 170.0 L 449.6551724137931 170.0 L 468.27586206896547 40.0 L 486.8965517241379 170.0 L 505.51724137931035 114.28571428571429 L 524.1379310344828 170.0 L 542.7586206896551 114.28571428571429 L 561.3793103448276 132.85714285714286 L 580.0 170.0 L 580.0 170 Z" fill="rgba(46, 160, 67, 0.2)" />
  <path d="M 40.0 170.0 L 58.62068965517241 170.0 L 77.24137931034483 95.71428571428572 L 95.86206896551724 151.42857142857144 L 114.48275862068965 170.0 L 133.10344827586206 114.28571428571429 L 151.72413793103448 151.42857142857144 L 170.3448275862069 170.0 L 188.9655172413793 170.0 L 207.58620689655172 151.42857142857144 L 226.20689655172413 95.71428571428572 L 244.82758620689654 95.71428571428572 L 263.44827586206895 132.85714285714286 L 282.0689655172414 170.0 L 300.6896551724138 95.71428571428572 L 319.31034482758616 151.42857142857144 L 337.9310344827586 170.0 L 356.55172413793105 95.71428571428572 L 375.17241379310343 151.42857142857144 L 393.7931034482758 151.42857142857144 L 412.41379310344826 151.42857142857144 L 431.0344827586207 170.0 L 449.6551724137931 170.0 L 468.27586206896547 40.0 L 486.8965517241379 170.0 L 505.51724137931035 114.28571428571429 L 524.1379310344828 170.0 L 542.7586206896551 114.28571428571429 L 561.3793103448276 132.85714285714286 L 580.0 170.0 " fill="none" stroke="#2ea043" stroke_width="2" stroke_linejoin="round" stroke_linecap="round" />
  <text x="40" y="190" text_anchor="start" class="label">May 09</text>
  <text x="580" y="190" text_anchor="end" class="label">Jun 07</text>
</svg>